<mxfile host="app.diagrams.net" modified="2024-04-01T08:23:04.458Z" agent="Mozilla/5.0 (Windows NT 10.0; Win64; x64) AppleWebKit/537.36 (KHTML, like Gecko) Chrome/123.0.0.0 Safari/537.36" etag="ZzfCa-rdTZt3AklYl8LP" version="24.2.1" type="device">
  <diagram name="Page-1" id="edf60f1a-56cd-e834-aa8a-f176f3a09ee4">
    <mxGraphModel dx="2049" dy="1114" grid="1" gridSize="10" guides="1" tooltips="1" connect="1" arrows="1" fold="1" page="1" pageScale="1" pageWidth="1654" pageHeight="1169" background="none" math="0" shadow="0">
      <root>
        <mxCell id="0" />
        <mxCell id="1" parent="0" />
        <mxCell id="1OYfGFMgjIHLjYyAmxIX-88" value="" style="edgeStyle=orthogonalEdgeStyle;rounded=0;orthogonalLoop=1;jettySize=auto;html=1;" edge="1" parent="1" source="urdCOFQPa7jtAe2fzoDn-6" target="1OYfGFMgjIHLjYyAmxIX-87">
          <mxGeometry relative="1" as="geometry" />
        </mxCell>
        <mxCell id="urdCOFQPa7jtAe2fzoDn-6" value="게임 시작" style="strokeWidth=2;html=1;shape=mxgraph.flowchart.terminator;whiteSpace=wrap;" parent="1" vertex="1">
          <mxGeometry x="280" y="10" width="100" height="60" as="geometry" />
        </mxCell>
        <mxCell id="1OYfGFMgjIHLjYyAmxIX-95" value="" style="edgeStyle=orthogonalEdgeStyle;rounded=0;orthogonalLoop=1;jettySize=auto;html=1;" edge="1" parent="1" source="1OYfGFMgjIHLjYyAmxIX-25" target="1OYfGFMgjIHLjYyAmxIX-94">
          <mxGeometry relative="1" as="geometry" />
        </mxCell>
        <mxCell id="1OYfGFMgjIHLjYyAmxIX-25" value="화로에 도착" style="whiteSpace=wrap;html=1;strokeWidth=2;" vertex="1" parent="1">
          <mxGeometry x="270" y="310" width="120" height="60" as="geometry" />
        </mxCell>
        <mxCell id="1OYfGFMgjIHLjYyAmxIX-48" style="edgeStyle=orthogonalEdgeStyle;rounded=0;orthogonalLoop=1;jettySize=auto;html=1;exitX=0.5;exitY=0;exitDx=0;exitDy=0;entryX=0;entryY=0.5;entryDx=0;entryDy=0;fillColor=#f8cecc;gradientColor=#ea6b66;strokeColor=#b85450;" edge="1" parent="1" source="1OYfGFMgjIHLjYyAmxIX-91" target="1OYfGFMgjIHLjYyAmxIX-25">
          <mxGeometry relative="1" as="geometry">
            <mxPoint x="130" y="440" as="sourcePoint" />
          </mxGeometry>
        </mxCell>
        <mxCell id="1OYfGFMgjIHLjYyAmxIX-57" style="edgeStyle=orthogonalEdgeStyle;rounded=0;orthogonalLoop=1;jettySize=auto;html=1;exitX=1;exitY=0.5;exitDx=0;exitDy=0;entryX=1;entryY=0.5;entryDx=0;entryDy=0;fillColor=#f8cecc;gradientColor=#ea6b66;strokeColor=#b85450;" edge="1" parent="1" source="1OYfGFMgjIHLjYyAmxIX-55" target="1OYfGFMgjIHLjYyAmxIX-87">
          <mxGeometry relative="1" as="geometry">
            <mxPoint x="390" y="160" as="targetPoint" />
            <Array as="points">
              <mxPoint x="500" y="820" />
              <mxPoint x="500" y="120" />
            </Array>
          </mxGeometry>
        </mxCell>
        <mxCell id="1OYfGFMgjIHLjYyAmxIX-58" value="NO" style="edgeLabel;html=1;align=center;verticalAlign=middle;resizable=0;points=[];fontSize=20;" vertex="1" connectable="0" parent="1OYfGFMgjIHLjYyAmxIX-57">
          <mxGeometry x="0.0376" y="-3" relative="1" as="geometry">
            <mxPoint x="-3" y="4" as="offset" />
          </mxGeometry>
        </mxCell>
        <mxCell id="1OYfGFMgjIHLjYyAmxIX-67" value="" style="edgeStyle=orthogonalEdgeStyle;rounded=0;orthogonalLoop=1;jettySize=auto;html=1;fillColor=#dae8fc;gradientColor=#7ea6e0;strokeColor=#6c8ebf;" edge="1" parent="1" source="1OYfGFMgjIHLjYyAmxIX-55" target="1OYfGFMgjIHLjYyAmxIX-66">
          <mxGeometry relative="1" as="geometry" />
        </mxCell>
        <mxCell id="1OYfGFMgjIHLjYyAmxIX-55" value="최종보스인가?" style="rhombus;whiteSpace=wrap;html=1;strokeWidth=2;" vertex="1" parent="1">
          <mxGeometry x="270" y="780" width="120" height="80" as="geometry" />
        </mxCell>
        <mxCell id="1OYfGFMgjIHLjYyAmxIX-66" value="엔딩 크래딧" style="rounded=1;whiteSpace=wrap;html=1;strokeWidth=2;" vertex="1" parent="1">
          <mxGeometry x="270" y="880" width="120" height="60" as="geometry" />
        </mxCell>
        <mxCell id="1OYfGFMgjIHLjYyAmxIX-73" style="edgeStyle=orthogonalEdgeStyle;rounded=0;orthogonalLoop=1;jettySize=auto;html=1;exitX=0;exitY=0.5;exitDx=0;exitDy=0;entryX=0.5;entryY=1;entryDx=0;entryDy=0;fillColor=#f8cecc;gradientColor=#ea6b66;strokeColor=#b85450;" edge="1" parent="1" source="1OYfGFMgjIHLjYyAmxIX-69" target="1OYfGFMgjIHLjYyAmxIX-91">
          <mxGeometry relative="1" as="geometry">
            <mxPoint x="130" y="520" as="targetPoint" />
          </mxGeometry>
        </mxCell>
        <mxCell id="1OYfGFMgjIHLjYyAmxIX-75" style="edgeStyle=orthogonalEdgeStyle;rounded=0;orthogonalLoop=1;jettySize=auto;html=1;exitX=0.5;exitY=1;exitDx=0;exitDy=0;entryX=0.5;entryY=0;entryDx=0;entryDy=0;fillColor=#dae8fc;gradientColor=#7ea6e0;strokeColor=#6c8ebf;" edge="1" parent="1" source="1OYfGFMgjIHLjYyAmxIX-69" target="1OYfGFMgjIHLjYyAmxIX-55">
          <mxGeometry relative="1" as="geometry" />
        </mxCell>
        <mxCell id="1OYfGFMgjIHLjYyAmxIX-69" value="보스와의 전투에서&lt;br&gt;&amp;nbsp;승리했는가?" style="rhombus;whiteSpace=wrap;html=1;strokeWidth=2;" vertex="1" parent="1">
          <mxGeometry x="255" y="670" width="150" height="80" as="geometry" />
        </mxCell>
        <mxCell id="1OYfGFMgjIHLjYyAmxIX-80" value="" style="edgeStyle=orthogonalEdgeStyle;rounded=0;orthogonalLoop=1;jettySize=auto;html=1;exitX=0.5;exitY=1;exitDx=0;exitDy=0;entryX=0.5;entryY=0;entryDx=0;entryDy=0;" edge="1" parent="1" target="1OYfGFMgjIHLjYyAmxIX-78">
          <mxGeometry relative="1" as="geometry">
            <mxPoint x="330" y="190" as="sourcePoint" />
            <mxPoint x="430" y="245" as="targetPoint" />
            <Array as="points" />
          </mxGeometry>
        </mxCell>
        <mxCell id="1OYfGFMgjIHLjYyAmxIX-86" style="edgeStyle=orthogonalEdgeStyle;rounded=0;orthogonalLoop=1;jettySize=auto;html=1;exitX=0.5;exitY=1;exitDx=0;exitDy=0;entryX=0.5;entryY=0;entryDx=0;entryDy=0;fillColor=#b1ddf0;strokeColor=#085678;" edge="1" parent="1" source="1OYfGFMgjIHLjYyAmxIX-78" target="1OYfGFMgjIHLjYyAmxIX-25">
          <mxGeometry relative="1" as="geometry" />
        </mxCell>
        <mxCell id="1OYfGFMgjIHLjYyAmxIX-90" style="edgeStyle=orthogonalEdgeStyle;rounded=0;orthogonalLoop=1;jettySize=auto;html=1;exitX=0;exitY=0.5;exitDx=0;exitDy=0;entryX=0;entryY=0.5;entryDx=0;entryDy=0;fillColor=#f8cecc;gradientColor=#ea6b66;strokeColor=#b85450;" edge="1" parent="1" source="1OYfGFMgjIHLjYyAmxIX-78" target="1OYfGFMgjIHLjYyAmxIX-87">
          <mxGeometry relative="1" as="geometry">
            <Array as="points">
              <mxPoint x="200" y="235" />
              <mxPoint x="200" y="120" />
            </Array>
          </mxGeometry>
        </mxCell>
        <mxCell id="1OYfGFMgjIHLjYyAmxIX-78" value="다음 화로를&lt;br&gt;발견했는가?" style="rhombus;whiteSpace=wrap;html=1;" vertex="1" parent="1">
          <mxGeometry x="285" y="190" width="90" height="90" as="geometry" />
        </mxCell>
        <mxCell id="1OYfGFMgjIHLjYyAmxIX-89" style="edgeStyle=orthogonalEdgeStyle;rounded=0;orthogonalLoop=1;jettySize=auto;html=1;exitX=0.5;exitY=1;exitDx=0;exitDy=0;entryX=0.5;entryY=0;entryDx=0;entryDy=0;" edge="1" parent="1" source="1OYfGFMgjIHLjYyAmxIX-87" target="1OYfGFMgjIHLjYyAmxIX-78">
          <mxGeometry relative="1" as="geometry" />
        </mxCell>
        <mxCell id="1OYfGFMgjIHLjYyAmxIX-87" value="다음 목적지인&lt;br&gt;화로를 향한다." style="whiteSpace=wrap;html=1;strokeWidth=2;" vertex="1" parent="1">
          <mxGeometry x="270" y="90" width="120" height="60" as="geometry" />
        </mxCell>
        <mxCell id="1OYfGFMgjIHLjYyAmxIX-91" value="&lt;span style=&quot;background-color: initial;&quot;&gt;마지막으로 들린&lt;br&gt;&amp;nbsp;화로에서 부활&lt;/span&gt;" style="rounded=0;whiteSpace=wrap;html=1;" vertex="1" parent="1">
          <mxGeometry x="70" y="450" width="120" height="60" as="geometry" />
        </mxCell>
        <mxCell id="1OYfGFMgjIHLjYyAmxIX-103" style="edgeStyle=orthogonalEdgeStyle;rounded=0;orthogonalLoop=1;jettySize=auto;html=1;exitX=1;exitY=0.5;exitDx=0;exitDy=0;entryX=0.5;entryY=0;entryDx=0;entryDy=0;fillColor=#f8cecc;gradientColor=#ea6b66;strokeColor=#b85450;" edge="1" parent="1" source="1OYfGFMgjIHLjYyAmxIX-94" target="1OYfGFMgjIHLjYyAmxIX-101">
          <mxGeometry relative="1" as="geometry">
            <Array as="points">
              <mxPoint x="410" y="430" />
            </Array>
          </mxGeometry>
        </mxCell>
        <mxCell id="1OYfGFMgjIHLjYyAmxIX-94" value="소울을 사용할 것인가?" style="rhombus;whiteSpace=wrap;html=1;strokeWidth=2;" vertex="1" parent="1">
          <mxGeometry x="260" y="390" width="140" height="80" as="geometry" />
        </mxCell>
        <mxCell id="1OYfGFMgjIHLjYyAmxIX-100" value="소울 사용" style="rounded=0;whiteSpace=wrap;html=1;" vertex="1" parent="1">
          <mxGeometry x="200" y="500" width="120" height="60" as="geometry" />
        </mxCell>
        <mxCell id="1OYfGFMgjIHLjYyAmxIX-101" value="소울 저축" style="rounded=0;whiteSpace=wrap;html=1;" vertex="1" parent="1">
          <mxGeometry x="350" y="500" width="120" height="60" as="geometry" />
        </mxCell>
        <mxCell id="1OYfGFMgjIHLjYyAmxIX-102" style="edgeStyle=orthogonalEdgeStyle;rounded=0;orthogonalLoop=1;jettySize=auto;html=1;exitX=0;exitY=0.5;exitDx=0;exitDy=0;entryX=0.422;entryY=-0.025;entryDx=0;entryDy=0;entryPerimeter=0;fillColor=#dae8fc;gradientColor=#7ea6e0;strokeColor=#6c8ebf;" edge="1" parent="1" source="1OYfGFMgjIHLjYyAmxIX-94" target="1OYfGFMgjIHLjYyAmxIX-100">
          <mxGeometry relative="1" as="geometry">
            <Array as="points">
              <mxPoint x="251" y="430" />
            </Array>
          </mxGeometry>
        </mxCell>
        <mxCell id="1OYfGFMgjIHLjYyAmxIX-104" style="edgeStyle=orthogonalEdgeStyle;rounded=0;orthogonalLoop=1;jettySize=auto;html=1;exitX=0.5;exitY=1;exitDx=0;exitDy=0;entryX=0.5;entryY=0;entryDx=0;entryDy=0;" edge="1" parent="1" source="1OYfGFMgjIHLjYyAmxIX-100" target="1OYfGFMgjIHLjYyAmxIX-69">
          <mxGeometry relative="1" as="geometry" />
        </mxCell>
        <mxCell id="1OYfGFMgjIHLjYyAmxIX-105" style="edgeStyle=orthogonalEdgeStyle;rounded=0;orthogonalLoop=1;jettySize=auto;html=1;exitX=0.5;exitY=1;exitDx=0;exitDy=0;entryX=0.5;entryY=0;entryDx=0;entryDy=0;" edge="1" parent="1" source="1OYfGFMgjIHLjYyAmxIX-101" target="1OYfGFMgjIHLjYyAmxIX-69">
          <mxGeometry relative="1" as="geometry" />
        </mxCell>
      </root>
    </mxGraphModel>
  </diagram>
</mxfile>
